<svg width="1200" height="820" viewBox="0 0 1200 820" fill="none" xmlns="http://www.w3.org/2000/svg">
  <rect width="1200" height="820" fill="#FAFAFA"/>
  <rect x="126" y="112" width="948" height="596" rx="2" fill="#F4F4F4"/>
  <path d="M264 552C352.5 444 414 394 493.5 394C582 394 612 504 695.5 504C776.5 504 823.5 408 929 290" stroke="#CFCFCF" stroke-width="3"/>
  <path d="M283 313C341.972 257.522 398.161 233.511 451.5 241C520.5 250.687 543.5 337.845 605.5 341C674.5 344.512 707.751 235.208 786 199.5" stroke="#D9D9D9" stroke-width="2"/>
  <circle cx="463" cy="304" r="84" fill="#F8F8F8" stroke="#D4D4D4" stroke-width="2"/>
  <circle cx="740" cy="514" r="116" fill="#F7F7F7" stroke="#DADADA" stroke-width="2"/>
  <path d="M126 688H1074" stroke="#DDDDDD" stroke-width="2"/>
  <text x="150" y="742" fill="#8A8A8A" font-family="serif" font-size="28">Banner placeholder</text>
  <text x="150" y="776" fill="#A0A0A0" font-family="serif" font-size="22">Replace this file with your own artwork.</text>
</svg>
